<mxfile host="app.diagrams.net" modified="2023-10-04T10:56:41.086Z" agent="Mozilla/5.0 (X11; Linux x86_64) AppleWebKit/537.36 (KHTML, like Gecko) Chrome/117.0.0.0 Safari/537.36" etag="JMor84AsX8gOtqqLqHUq" version="22.0.2" type="github">
  <diagram name="Page-1" id="dXy0XVynJipYpKjjFxLi">
    <mxGraphModel dx="1563" dy="1792" grid="1" gridSize="10" guides="1" tooltips="1" connect="1" arrows="1" fold="1" page="1" pageScale="1" pageWidth="827" pageHeight="1169" math="0" shadow="0">
      <root>
        <mxCell id="0" />
        <mxCell id="1" parent="0" />
        <mxCell id="FcL633AZLK_fhRZo0vDX-1" value="TAMU ORDER" style="rounded=1;whiteSpace=wrap;html=1;" parent="1" vertex="1">
          <mxGeometry x="260" y="-50" width="180" height="40" as="geometry" />
        </mxCell>
        <mxCell id="FcL633AZLK_fhRZo0vDX-8" value="" style="edgeStyle=orthogonalEdgeStyle;rounded=0;orthogonalLoop=1;jettySize=auto;html=1;" parent="1" source="FcL633AZLK_fhRZo0vDX-2" target="FcL633AZLK_fhRZo0vDX-7" edge="1">
          <mxGeometry relative="1" as="geometry" />
        </mxCell>
        <mxCell id="FcL633AZLK_fhRZo0vDX-2" value="TAMU INCHARGE" style="rounded=1;whiteSpace=wrap;html=1;" parent="1" vertex="1">
          <mxGeometry x="110" y="40" width="150" height="50" as="geometry" />
        </mxCell>
        <mxCell id="FcL633AZLK_fhRZo0vDX-19" value="" style="edgeStyle=orthogonalEdgeStyle;rounded=0;orthogonalLoop=1;jettySize=auto;html=1;" parent="1" source="FcL633AZLK_fhRZo0vDX-3" target="FcL633AZLK_fhRZo0vDX-18" edge="1">
          <mxGeometry relative="1" as="geometry" />
        </mxCell>
        <mxCell id="FcL633AZLK_fhRZo0vDX-3" value="TAMU HOTEL" style="rounded=1;whiteSpace=wrap;html=1;" parent="1" vertex="1">
          <mxGeometry x="450" y="45" width="140" height="40" as="geometry" />
        </mxCell>
        <mxCell id="FcL633AZLK_fhRZo0vDX-4" value="" style="endArrow=classic;html=1;rounded=0;entryX=0;entryY=0;entryDx=0;entryDy=0;" parent="1" target="FcL633AZLK_fhRZo0vDX-3" edge="1">
          <mxGeometry width="50" height="50" relative="1" as="geometry">
            <mxPoint x="370" y="-10" as="sourcePoint" />
            <mxPoint x="430" as="targetPoint" />
          </mxGeometry>
        </mxCell>
        <mxCell id="FcL633AZLK_fhRZo0vDX-5" value="" style="endArrow=classic;html=1;rounded=0;exitX=0.5;exitY=1;exitDx=0;exitDy=0;" parent="1" source="FcL633AZLK_fhRZo0vDX-1" target="FcL633AZLK_fhRZo0vDX-2" edge="1">
          <mxGeometry width="50" height="50" relative="1" as="geometry">
            <mxPoint x="380" y="50" as="sourcePoint" />
            <mxPoint x="430" as="targetPoint" />
          </mxGeometry>
        </mxCell>
        <mxCell id="FcL633AZLK_fhRZo0vDX-10" value="" style="edgeStyle=orthogonalEdgeStyle;rounded=0;orthogonalLoop=1;jettySize=auto;html=1;" parent="1" source="FcL633AZLK_fhRZo0vDX-7" target="FcL633AZLK_fhRZo0vDX-9" edge="1">
          <mxGeometry relative="1" as="geometry" />
        </mxCell>
        <mxCell id="FcL633AZLK_fhRZo0vDX-7" value="CUSTOMER ORDER" style="rhombus;whiteSpace=wrap;html=1;" parent="1" vertex="1">
          <mxGeometry x="130" y="140" width="110" height="100" as="geometry" />
        </mxCell>
        <mxCell id="FcL633AZLK_fhRZo0vDX-13" value="" style="edgeStyle=orthogonalEdgeStyle;rounded=0;orthogonalLoop=1;jettySize=auto;html=1;" parent="1" source="FcL633AZLK_fhRZo0vDX-9" target="FcL633AZLK_fhRZo0vDX-12" edge="1">
          <mxGeometry relative="1" as="geometry" />
        </mxCell>
        <mxCell id="FcL633AZLK_fhRZo0vDX-9" value="LIST MENU + HARGA incharge&amp;nbsp;" style="rounded=1;whiteSpace=wrap;html=1;" parent="1" vertex="1">
          <mxGeometry x="117.5" y="290" width="135" height="30" as="geometry" />
        </mxCell>
        <mxCell id="FcL633AZLK_fhRZo0vDX-15" value="" style="edgeStyle=orthogonalEdgeStyle;rounded=0;orthogonalLoop=1;jettySize=auto;html=1;" parent="1" source="FcL633AZLK_fhRZo0vDX-12" target="FcL633AZLK_fhRZo0vDX-14" edge="1">
          <mxGeometry relative="1" as="geometry" />
        </mxCell>
        <mxCell id="jjd7s0b2DdP0tu_94tTj-2" value="" style="edgeStyle=orthogonalEdgeStyle;rounded=0;orthogonalLoop=1;jettySize=auto;html=1;" edge="1" parent="1" source="FcL633AZLK_fhRZo0vDX-12" target="jjd7s0b2DdP0tu_94tTj-1">
          <mxGeometry relative="1" as="geometry" />
        </mxCell>
        <mxCell id="FcL633AZLK_fhRZo0vDX-12" value="invoices" style="rounded=1;whiteSpace=wrap;html=1;" parent="1" vertex="1">
          <mxGeometry x="110" y="380" width="150" height="30" as="geometry" />
        </mxCell>
        <mxCell id="FcL633AZLK_fhRZo0vDX-17" value="" style="edgeStyle=orthogonalEdgeStyle;rounded=0;orthogonalLoop=1;jettySize=auto;html=1;" parent="1" source="FcL633AZLK_fhRZo0vDX-14" target="FcL633AZLK_fhRZo0vDX-16" edge="1">
          <mxGeometry relative="1" as="geometry" />
        </mxCell>
        <mxCell id="FcL633AZLK_fhRZo0vDX-14" value="add order to kitchen&amp;nbsp;" style="rounded=1;whiteSpace=wrap;html=1;" parent="1" vertex="1">
          <mxGeometry x="98.75" y="460" width="172.5" height="40" as="geometry" />
        </mxCell>
        <mxCell id="FcL633AZLK_fhRZo0vDX-16" value="END" style="rounded=1;whiteSpace=wrap;html=1;" parent="1" vertex="1">
          <mxGeometry x="98.75" y="530" width="172.5" height="40" as="geometry" />
        </mxCell>
        <mxCell id="FcL633AZLK_fhRZo0vDX-21" value="" style="edgeStyle=orthogonalEdgeStyle;rounded=0;orthogonalLoop=1;jettySize=auto;html=1;" parent="1" source="FcL633AZLK_fhRZo0vDX-18" target="FcL633AZLK_fhRZo0vDX-20" edge="1">
          <mxGeometry relative="1" as="geometry" />
        </mxCell>
        <mxCell id="FcL633AZLK_fhRZo0vDX-18" value="CUSTOMER ORDER" style="rhombus;whiteSpace=wrap;html=1;" parent="1" vertex="1">
          <mxGeometry x="465" y="160" width="110" height="100" as="geometry" />
        </mxCell>
        <mxCell id="FcL633AZLK_fhRZo0vDX-20" value="INPUT NOMOR KAMAR" style="rounded=1;whiteSpace=wrap;html=1;" parent="1" vertex="1">
          <mxGeometry x="650" y="190" width="130" height="40" as="geometry" />
        </mxCell>
        <mxCell id="FcL633AZLK_fhRZo0vDX-22" value="LIST MENU + HARGA&amp;nbsp; hotel" style="rounded=1;whiteSpace=wrap;html=1;" parent="1" vertex="1">
          <mxGeometry x="575" y="320" width="135" height="30" as="geometry" />
        </mxCell>
        <mxCell id="FcL633AZLK_fhRZo0vDX-25" value="MINIBAR&amp;nbsp;" style="rounded=1;whiteSpace=wrap;html=1;" parent="1" vertex="1">
          <mxGeometry x="760" y="320" width="135" height="30" as="geometry" />
        </mxCell>
        <mxCell id="FcL633AZLK_fhRZo0vDX-26" value="" style="endArrow=classic;html=1;rounded=0;exitX=0.559;exitY=1;exitDx=0;exitDy=0;exitPerimeter=0;entryX=0.316;entryY=0.022;entryDx=0;entryDy=0;entryPerimeter=0;" parent="1" source="FcL633AZLK_fhRZo0vDX-20" target="FcL633AZLK_fhRZo0vDX-25" edge="1">
          <mxGeometry width="50" height="50" relative="1" as="geometry">
            <mxPoint x="490" y="320" as="sourcePoint" />
            <mxPoint x="540" y="270" as="targetPoint" />
          </mxGeometry>
        </mxCell>
        <mxCell id="Bz0hvA0yeFKbEZu41GxI-1" value="" style="endArrow=classic;html=1;rounded=0;exitX=0.554;exitY=1.01;exitDx=0;exitDy=0;exitPerimeter=0;entryX=0.5;entryY=0;entryDx=0;entryDy=0;" parent="1" source="FcL633AZLK_fhRZo0vDX-20" target="FcL633AZLK_fhRZo0vDX-22" edge="1">
          <mxGeometry width="50" height="50" relative="1" as="geometry">
            <mxPoint x="655" y="250" as="sourcePoint" />
            <mxPoint x="705" y="331" as="targetPoint" />
            <Array as="points" />
          </mxGeometry>
        </mxCell>
        <mxCell id="Bz0hvA0yeFKbEZu41GxI-2" value="" style="edgeStyle=orthogonalEdgeStyle;rounded=0;orthogonalLoop=1;jettySize=auto;html=1;" parent="1" source="Bz0hvA0yeFKbEZu41GxI-3" target="Bz0hvA0yeFKbEZu41GxI-5" edge="1">
          <mxGeometry relative="1" as="geometry" />
        </mxCell>
        <mxCell id="Bz0hvA0yeFKbEZu41GxI-3" value="invoices" style="rounded=1;whiteSpace=wrap;html=1;" parent="1" vertex="1">
          <mxGeometry x="651.25" y="385" width="150" height="30" as="geometry" />
        </mxCell>
        <mxCell id="Bz0hvA0yeFKbEZu41GxI-4" value="" style="edgeStyle=orthogonalEdgeStyle;rounded=0;orthogonalLoop=1;jettySize=auto;html=1;" parent="1" source="Bz0hvA0yeFKbEZu41GxI-5" target="Bz0hvA0yeFKbEZu41GxI-6" edge="1">
          <mxGeometry relative="1" as="geometry" />
        </mxCell>
        <mxCell id="Bz0hvA0yeFKbEZu41GxI-5" value="add order to kitchen&amp;nbsp;" style="rounded=1;whiteSpace=wrap;html=1;" parent="1" vertex="1">
          <mxGeometry x="640" y="465" width="172.5" height="40" as="geometry" />
        </mxCell>
        <mxCell id="Bz0hvA0yeFKbEZu41GxI-6" value="END" style="rounded=1;whiteSpace=wrap;html=1;" parent="1" vertex="1">
          <mxGeometry x="640" y="535" width="172.5" height="40" as="geometry" />
        </mxCell>
        <mxCell id="Bz0hvA0yeFKbEZu41GxI-17" value="" style="endArrow=none;html=1;rounded=0;exitX=1;exitY=0.25;exitDx=0;exitDy=0;entryX=0;entryY=0.25;entryDx=0;entryDy=0;" parent="1" source="FcL633AZLK_fhRZo0vDX-22" target="FcL633AZLK_fhRZo0vDX-25" edge="1">
          <mxGeometry width="50" height="50" relative="1" as="geometry">
            <mxPoint x="520" y="480" as="sourcePoint" />
            <mxPoint x="570" y="430" as="targetPoint" />
          </mxGeometry>
        </mxCell>
        <mxCell id="Bz0hvA0yeFKbEZu41GxI-19" value="" style="endArrow=classic;html=1;rounded=0;entryX=0.5;entryY=0;entryDx=0;entryDy=0;" parent="1" target="Bz0hvA0yeFKbEZu41GxI-3" edge="1">
          <mxGeometry width="50" height="50" relative="1" as="geometry">
            <mxPoint x="730" y="330" as="sourcePoint" />
            <mxPoint x="570" y="430" as="targetPoint" />
          </mxGeometry>
        </mxCell>
        <mxCell id="jjd7s0b2DdP0tu_94tTj-5" value="" style="edgeStyle=orthogonalEdgeStyle;rounded=0;orthogonalLoop=1;jettySize=auto;html=1;dashed=1;" edge="1" parent="1" source="jjd7s0b2DdP0tu_94tTj-1" target="jjd7s0b2DdP0tu_94tTj-4">
          <mxGeometry relative="1" as="geometry" />
        </mxCell>
        <mxCell id="jjd7s0b2DdP0tu_94tTj-1" value="INVOICES" style="rounded=1;whiteSpace=wrap;html=1;glass=1;" vertex="1" parent="1">
          <mxGeometry x="-130" y="295" width="170" height="200" as="geometry" />
        </mxCell>
        <mxCell id="jjd7s0b2DdP0tu_94tTj-3" value="KETERANGAN" style="rounded=1;whiteSpace=wrap;html=1;" vertex="1" parent="1">
          <mxGeometry x="-100" y="450" width="110" height="25" as="geometry" />
        </mxCell>
        <mxCell id="jjd7s0b2DdP0tu_94tTj-4" value="INPUT EXAMPLE" style="rounded=1;whiteSpace=wrap;html=1;" vertex="1" parent="1">
          <mxGeometry x="-127.5" y="650" width="165" height="30" as="geometry" />
        </mxCell>
        <mxCell id="jjd7s0b2DdP0tu_94tTj-6" value="Control with input" style="text;html=1;align=center;verticalAlign=middle;resizable=0;points=[];autosize=1;strokeColor=none;fillColor=none;" vertex="1" parent="1">
          <mxGeometry x="-180" y="548" width="120" height="30" as="geometry" />
        </mxCell>
        <mxCell id="jjd7s0b2DdP0tu_94tTj-8" value="" style="endArrow=classic;html=1;rounded=0;exitX=0.435;exitY=0.08;exitDx=0;exitDy=0;exitPerimeter=0;entryX=0.25;entryY=1;entryDx=0;entryDy=0;" edge="1" parent="1" source="jjd7s0b2DdP0tu_94tTj-6" target="jjd7s0b2DdP0tu_94tTj-3">
          <mxGeometry width="50" height="50" relative="1" as="geometry">
            <mxPoint x="60" y="600" as="sourcePoint" />
            <mxPoint x="110" y="550" as="targetPoint" />
          </mxGeometry>
        </mxCell>
        <mxCell id="jjd7s0b2DdP0tu_94tTj-9" value="" style="endArrow=classic;html=1;rounded=0;exitX=0.442;exitY=1.093;exitDx=0;exitDy=0;exitPerimeter=0;entryX=0.25;entryY=0;entryDx=0;entryDy=0;" edge="1" parent="1" source="jjd7s0b2DdP0tu_94tTj-6" target="jjd7s0b2DdP0tu_94tTj-4">
          <mxGeometry width="50" height="50" relative="1" as="geometry">
            <mxPoint x="60" y="610" as="sourcePoint" />
            <mxPoint x="110" y="560" as="targetPoint" />
          </mxGeometry>
        </mxCell>
        <mxCell id="jjd7s0b2DdP0tu_94tTj-11" value="" style="endArrow=classic;html=1;rounded=0;entryX=0.648;entryY=0.999;entryDx=0;entryDy=0;entryPerimeter=0;dashed=1;" edge="1" parent="1" target="jjd7s0b2DdP0tu_94tTj-1">
          <mxGeometry width="50" height="50" relative="1" as="geometry">
            <mxPoint x="-20" y="650" as="sourcePoint" />
            <mxPoint x="70" y="570" as="targetPoint" />
          </mxGeometry>
        </mxCell>
      </root>
    </mxGraphModel>
  </diagram>
</mxfile>
